<svg width="21" height="25" viewBox="0 0 21 25" fill="none" xmlns="http://www.w3.org/2000/svg">
<path d="M20.4952 18.0927C19.8821 19.9507 18.9984 21.4182 17.9103 22.7405C17.1426 23.6668 16.0987 24.7604 14.2926 24.3866C13.3205 24.1857 12.5638 23.6835 11.5254 23.5608C9.7083 23.3432 8.66993 24.2694 7.11237 24.4814C6.02981 24.6209 5.22894 23.9458 4.66557 23.3989C4.02487 22.7796 3.52778 22.1156 3.04726 21.4126C2.08069 19.9898 1.30191 18.288 0.854525 16.3686C0.628071 15.3921 0.451327 14.2371 0.512083 13.1212C0.567315 11.9941 0.749583 11.0065 1.13621 10.1249C1.8708 8.42868 3.02516 7.18999 4.80917 6.57622C5.28417 6.40883 5.7647 6.31398 6.30598 6.26934C7.7365 6.16333 8.76935 6.79941 9.89057 7.13977C10.1446 7.21231 10.4208 7.3239 10.7246 7.30716C11.0505 7.29042 11.4095 7.13977 11.7243 7.03376C12.6798 6.70456 13.5525 6.27492 14.751 6.19123C15.9441 6.11869 17.0818 6.45347 17.8717 6.84405C18.7222 7.27368 19.385 7.84281 19.8877 8.59607C18.3964 9.52787 17.0045 11.0176 17.2586 13.6513C17.4409 15.9501 18.8161 17.2725 20.4952 18.0927Z" fill="#0068F8"/>
<path d="M15.4857 0.784564C15.5741 2.39151 14.845 3.58556 14.127 4.43367C13.3151 5.38222 12.238 6.21917 10.5258 6.18011C10.3767 4.43367 11.1168 3.22846 11.9011 2.31897C12.5142 1.61036 13.3261 1.08029 14.2927 0.745506C14.6296 0.628333 14.972 0.594855 15.3642 0.516739C15.3863 0.511159 15.3973 0.5 15.4305 0.5C15.5244 0.550217 15.4747 0.689709 15.4857 0.784564Z" fill="#0068F8"/>
</svg>
