<svg width="26" height="26" viewBox="0 0 26 26" fill="none" xmlns="http://www.w3.org/2000/svg">
<path d="M22.3438 1.625H21.9375V0H19.5V1.625H6.5V0H4.0625V1.625H3.65625C2.68721 1.62715 1.75848 2.01305 1.07326 2.69826C0.388046 3.38348 0.00214627 4.31221 0 5.28125L0 22.3438C0.00214627 23.3128 0.388046 24.2415 1.07326 24.9267C1.75848 25.612 2.68721 25.9979 3.65625 26H22.3438C23.3128 25.9979 24.2415 25.612 24.9267 24.9267C25.612 24.2415 25.9979 23.3128 26 22.3438V5.28125C25.9979 4.31221 25.612 3.38348 24.9267 2.69826C24.2415 2.01305 23.3128 1.62715 22.3438 1.625ZM23.5625 22.3438C23.5625 22.667 23.4341 22.977 23.2055 23.2055C22.977 23.4341 22.667 23.5625 22.3438 23.5625H3.65625C3.33302 23.5625 3.02302 23.4341 2.79446 23.2055C2.5659 22.977 2.4375 22.667 2.4375 22.3438V8.53125C2.4375 8.20802 2.5659 7.89802 2.79446 7.66946C3.02302 7.4409 3.33302 7.3125 3.65625 7.3125H22.3438C22.667 7.3125 22.977 7.4409 23.2055 7.66946C23.4341 7.89802 23.5625 8.20802 23.5625 8.53125V22.3438ZM9.75 14.625H6.5V11.375H9.75V14.625ZM14.625 14.625H11.375V11.375H14.625V14.625ZM19.5 14.625H16.25V11.375H19.5V14.625ZM9.75 19.5H6.5V16.25H9.75V19.5ZM14.625 19.5H11.375V16.25H14.625V19.5Z" fill="#DEE5EB"/>
</svg>
