<svg width="22" height="20" viewBox="0 0 22 20" fill="none" xmlns="http://www.w3.org/2000/svg">
<path d="M13.3018 7.10571C13.7576 6.90704 14.1973 6.7136 14.6397 6.52017C15.4173 6.18035 16.1948 5.84314 16.9724 5.50593C17.1869 5.41182 17.1815 5.41182 17.1547 5.18963C17.1145 4.84981 17.0769 4.50737 17.0474 4.16755C17.0206 3.86694 17.1547 3.65782 17.4469 3.53234C18.3693 3.1324 19.2863 2.722 20.2059 2.31682C20.2193 2.3116 20.2354 2.3116 20.2729 2.30637C20.2354 2.52856 20.2032 2.7403 20.1657 2.95465C20.0772 3.49313 19.9914 4.03424 19.8949 4.57272C19.8734 4.68774 19.9163 4.74263 20.0102 4.79753C20.6349 5.17395 21.2569 5.55559 21.879 5.93463C21.9138 5.95554 21.946 5.97907 21.997 6.01305C21.702 6.14375 21.4232 6.26922 21.1443 6.39469C20.4713 6.69269 19.7984 6.98808 19.1254 7.28869C18.876 7.39848 18.6481 7.3462 18.4658 7.16583C18.1843 6.89136 17.9135 6.60904 17.648 6.31627C17.5676 6.2274 17.5086 6.23001 17.4148 6.27184C16.8517 6.52017 16.2887 6.76589 15.7256 7.0116C15.066 7.29915 14.4038 7.58669 13.7442 7.87423C13.7174 7.8873 13.6906 7.90037 13.6798 7.9056C13.8702 8.48068 14.074 9.04008 14.2429 9.61255C14.5351 10.6137 14.7094 11.6358 14.7577 12.6814C14.7899 13.3898 14.7711 14.0956 14.6612 14.7935C14.4601 16.0823 14.0472 17.2899 13.1382 18.2833C12.1703 19.3419 10.9477 19.8098 9.49982 19.7001C8.3898 19.6164 7.39507 19.206 6.46737 18.6335C5.20452 17.8519 4.17761 16.8325 3.29549 15.664C2.53403 14.6576 1.91735 13.5728 1.42937 12.42C0.949433 11.2881 0.603557 10.1144 0.407828 8.90154C0.246956 7.90821 0.206737 6.90966 0.297899 5.9111C0.407828 4.70865 0.716168 3.5611 1.38915 2.53117C2.11844 1.4176 3.13194 0.70136 4.48863 0.502695C5.35467 0.374608 6.19657 0.510537 7.01434 0.798079C7.98494 1.14052 8.84293 1.66855 9.6312 2.31421C11.0657 3.49052 12.1542 4.93346 13.0176 6.54631C13.0658 6.6378 13.1114 6.73452 13.1597 6.82601C13.2026 6.90966 13.2482 6.99853 13.3018 7.10571ZM11.6582 8.78391C11.6636 8.81528 11.6636 8.82835 11.6662 8.84403C11.685 8.89631 11.7038 8.94598 11.7252 8.99826C12.2239 10.287 12.5537 11.6097 12.5055 13.0003C12.4894 13.4996 12.3982 13.9884 12.1703 14.4459C11.8486 15.0863 11.2936 15.3582 10.5857 15.2196C10.0816 15.1203 9.66338 14.8537 9.26924 14.5478C8.62039 14.0433 8.09487 13.429 7.64174 12.7572C6.36012 10.8542 5.52895 8.79959 5.39489 6.50971C5.35735 5.85359 5.42438 5.21054 5.6925 4.59364C5.99011 3.91138 6.59071 3.59508 7.33608 3.75454C7.91791 3.87739 8.38712 4.20676 8.82148 4.58057C9.70091 5.33863 10.3551 6.26661 10.9155 7.26255C11.0469 7.49781 11.1675 7.73569 11.2962 7.97879C11.5965 7.84809 11.8861 7.72 12.181 7.5893C11.4652 6.14113 10.5804 4.83674 9.36308 3.76761C8.62038 3.1141 7.80261 2.58868 6.81056 2.35081C5.65496 2.07372 4.56907 2.44491 3.87732 3.3755C3.42419 3.98195 3.19897 4.67467 3.07832 5.40137C2.88259 6.57506 2.97643 7.74353 3.2231 8.90154C3.44832 9.9576 3.80224 10.9718 4.27414 11.9469C4.94176 13.3323 5.7917 14.5949 6.93658 15.6509C7.69268 16.3489 8.52922 16.9266 9.55345 17.1932C10.0602 17.3265 10.5696 17.3553 11.0817 17.222C11.8807 17.0155 12.4358 16.5136 12.8272 15.8235C13.2964 14.9974 13.4546 14.0956 13.4814 13.1676C13.527 11.6306 13.1999 10.1563 12.6637 8.71856C12.6234 8.614 12.5779 8.51205 12.5296 8.40488C12.232 8.53296 11.9505 8.65582 11.6582 8.78391ZM10.4624 8.33953C10.1433 7.7017 9.77867 7.11094 9.28801 6.6012C9.04402 6.35026 8.78126 6.12284 8.44074 6.00259C8.0895 5.87712 7.80529 5.98952 7.64174 6.31627C7.49159 6.61166 7.47551 6.92795 7.48623 7.24948C7.50768 8.01016 7.71145 8.73163 7.9903 9.4348C8.33617 10.3079 8.78394 11.1261 9.43279 11.8266C9.67946 12.0933 9.95295 12.3337 10.3042 12.4697C10.6635 12.6082 10.9691 12.4958 11.1273 12.1534C11.189 12.0201 11.2372 11.8737 11.256 11.7273C11.3633 10.8333 11.122 9.9942 10.8217 9.15249C10.6447 9.22829 10.4785 9.30149 10.3203 9.37206C10.3766 9.60471 10.4436 9.81906 10.4758 10.0386C10.4999 10.2085 10.5026 10.3889 10.4731 10.5562C10.4382 10.7523 10.2881 10.8072 10.1192 10.6974C9.99317 10.6137 9.87787 10.5118 9.78135 10.3994C9.51323 10.0883 9.32554 9.72757 9.17003 9.35377C9.00916 8.9695 8.88314 8.57479 8.87778 8.15654C8.8751 8.01016 8.86706 7.83241 9.02793 7.75921C9.20489 7.68079 9.34431 7.80888 9.45156 7.92651C9.60439 8.09904 9.74113 8.28463 9.87251 8.47284C9.92614 8.55126 9.96635 8.57217 10.0522 8.52773C10.1755 8.45977 10.3122 8.40488 10.4624 8.33953Z" fill="white"/>
</svg>
