<svg width="17" height="17" viewBox="0 0 17 17" fill="none" xmlns="http://www.w3.org/2000/svg">
<g clip-path="url(#clip0_3134_1738)">
<path d="M8.5 17C3.81305 17 0 13.1869 0 8.4999C0 3.8131 3.81305 0 8.5 0C13.1867 0 16.9998 3.8131 16.9998 8.4999C17 13.1869 13.1869 17 8.5 17ZM8.5 1.02066C4.37591 1.02066 1.02065 4.37597 1.02065 8.4999C1.02065 12.6238 4.37591 15.9791 8.5 15.9791C12.6241 15.9791 15.9791 12.6236 15.9791 8.4999C15.9791 4.37597 12.6243 1.02066 8.5 1.02066Z" fill="#8BA0B4"/>
<path d="M8.68569 3.54492H7.66504V8.9895H8.68569V3.54492Z" fill="#8BA0B4"/>
<path d="M12.2473 12.1272L8.39746 8.27734L7.67576 8.99905L11.5256 12.8489L12.2473 12.1272Z" fill="#8BA0B4"/>
</g>
<defs>
<clipPath id="clip0_3134_1738">
<rect width="17" height="17" fill="white"/>
</clipPath>
</defs>
</svg>
