<svg width="13" height="13" viewBox="0 0 13 13" fill="none" xmlns="http://www.w3.org/2000/svg">
<path d="M6.93434 0C7.13247 0.0180113 7.33059 0.0360226 7.52872 0.0540338C8.6274 0.150094 9.67806 0.41426 10.6207 1.02064C11.5332 1.60901 12.1456 2.43753 12.5238 3.44616C12.812 4.21464 12.9441 5.01314 12.9861 5.82365C13.0342 6.66417 13.0041 7.4987 12.8541 8.32722C12.6739 9.34786 12.3137 10.2964 11.6353 11.101C11.0529 11.7854 10.3205 12.2477 9.47994 12.5479C8.73547 12.812 7.96099 12.9381 7.16849 12.9801C6.45404 13.0222 5.7396 12.9981 5.02515 12.9021C3.87243 12.746 2.80376 12.3918 1.89719 11.6233C1.25479 11.0769 0.804504 10.3985 0.498312 9.61202C0.120075 8.60939 0 7.55873 0 6.49007C0 5.56549 0.0960602 4.65892 0.372233 3.77036C0.912572 2.04728 2.04128 0.912572 3.76436 0.372233C4.45479 0.162102 5.16323 0.0600376 5.88369 0.024015C5.94372 0.0180113 6.00976 0.0120075 6.0698 0C6.35798 0 6.64616 0 6.93434 0ZM6.49607 11.6593C7.1865 11.6533 7.87093 11.5933 8.54335 11.4011C9.79814 11.0469 10.7107 10.3025 11.221 9.0957C11.4492 8.54935 11.5692 7.97299 11.6233 7.38463C11.7253 6.25592 11.6773 5.13322 11.2811 4.05854C10.9509 3.16398 10.3805 2.46755 9.53998 2.00526C8.87356 1.63302 8.1471 1.46492 7.39663 1.39287C6.36999 1.29681 5.36136 1.33884 4.36473 1.63302C3.23603 1.96323 2.3895 2.64165 1.87918 3.71032C1.591 4.3107 1.44691 4.9531 1.38687 5.61352C1.29681 6.61014 1.32683 7.60076 1.60901 8.56737C1.99325 9.90621 2.82777 10.8368 4.1546 11.2991C4.91108 11.5753 5.69757 11.6593 6.49607 11.6593Z" fill="#0068F8"/>
<path d="M7.62493 6.50806C8.03919 6.52607 8.43543 6.53808 8.83168 6.55609C8.96977 6.56209 9.11386 6.56209 9.25195 6.5801C9.51611 6.61613 9.60016 6.83226 9.43206 7.04239C8.63956 7.99699 7.84707 8.94559 7.04857 9.89418C6.89847 10.0743 6.55626 10.0623 6.39416 9.88217C5.72774 9.1317 5.06132 8.38123 4.3949 7.63076C4.22079 7.43264 4.04068 7.23451 3.86657 7.03039C3.77051 6.91631 3.7525 6.80825 3.82455 6.68217C3.89659 6.54408 4.01066 6.49005 4.15475 6.49605C4.66507 6.50206 5.17539 6.49605 5.70372 6.49605C5.70372 6.43001 5.70372 6.37598 5.70372 6.32795C5.70372 5.53545 5.70372 4.74295 5.70372 3.95646C5.70372 3.58423 5.83581 3.27804 6.17802 3.10993C6.56226 2.92381 7.29472 2.93582 7.54087 3.50017C7.60091 3.63826 7.63093 3.80036 7.63093 3.95646C7.63693 4.74896 7.63693 5.54746 7.63093 6.33995C7.62493 6.38798 7.62493 6.43601 7.62493 6.50806Z" fill="#0068F8"/>
</svg>
