<svg width="29" height="22" viewBox="0 0 29 22" fill="none" xmlns="http://www.w3.org/2000/svg">
<path d="M23.8668 5.2712C22.7159 5.1548 21.5572 5.39506 20.5448 5.96001C19.5325 6.52497 18.7146 7.38781 18.2 8.43372C18.1039 8.62676 17.9565 8.78891 17.7742 8.90195C17.5919 9.01498 17.3819 9.0744 17.168 9.07354H14.8415C14.6681 9.07677 14.4963 9.03971 14.3394 8.96522C14.1824 8.89073 14.0445 8.78081 13.9363 8.64395C13.5868 8.18106 13.1362 7.80582 12.6197 7.54742C12.1032 7.28902 11.5345 7.15442 10.9581 7.15409C10.4436 7.15505 9.93496 7.26399 9.46442 7.474C9.33233 7.53695 9.18432 7.55756 9.04029 7.53305C8.89626 7.50854 8.76311 7.44009 8.65876 7.33689L7.4729 6.12124C7.36373 6.02474 7.28621 5.897 7.25064 5.75497C7.21507 5.61294 7.22313 5.46334 7.27374 5.32604C7.59703 4.60779 7.68579 3.80437 7.52721 3.03184C7.35992 2.26387 6.96575 1.56524 6.3968 1.0283C5.82785 0.491369 5.11092 0.141417 4.34077 0.0247088C3.37433 -0.0865181 2.40243 0.180489 1.62504 0.770792C0.847639 1.36109 0.323882 2.22979 0.161528 3.19815C-0.000826477 4.16651 0.210572 5.16087 0.752226 5.97663C1.29388 6.7924 2.12459 7.36753 3.07344 7.58368C3.83446 7.74919 4.62805 7.66265 5.33653 7.33689C5.47144 7.28303 5.61913 7.27077 5.76093 7.30169C5.90273 7.3326 6.03227 7.40529 6.13314 7.51056L7.27374 8.67137C7.37936 8.77431 7.45149 8.90723 7.48059 9.0525C7.50969 9.19778 7.49438 9.34856 7.43669 9.48485C7.22755 9.95959 7.11949 10.4734 7.11949 10.993C7.11949 11.5126 7.22755 12.0264 7.43669 12.5011C7.49438 12.6374 7.50969 12.7882 7.48059 12.9335C7.45149 13.0787 7.37936 13.2117 7.27374 13.3146L6.09693 14.5028C5.99606 14.6081 5.86653 14.6808 5.72472 14.7117C5.58292 14.7426 5.43523 14.7304 5.30032 14.6765C4.59185 14.3507 3.79825 14.2642 3.03723 14.4297C2.26908 14.5948 1.56938 14.9934 1.03214 15.5718C0.494886 16.1502 0.145822 16.8808 0.0318366 17.6654C-0.0438846 18.2524 0.0159046 18.8493 0.20653 19.4091C0.397155 19.969 0.71345 20.4768 1.13069 20.8928C1.54792 21.3088 2.05479 21.6216 2.61167 21.807C3.16854 21.9924 3.76033 22.0452 4.34077 21.9613C5.11945 21.8479 5.845 21.4962 6.41961 20.9536C6.99421 20.411 7.39026 19.7036 7.55437 18.9267C7.69859 18.1601 7.60042 17.3671 7.27374 16.6599C7.2199 16.5253 7.20752 16.3774 7.2382 16.2355C7.26888 16.0937 7.34121 15.9644 7.44574 15.8647L8.65876 14.6491C8.76104 14.5429 8.89321 14.471 9.03733 14.4432C9.18146 14.4154 9.33056 14.433 9.46442 14.4937C9.93496 14.7037 10.4436 14.8126 10.9581 14.8136C11.5345 14.8133 12.1032 14.6787 12.6197 14.4203C13.1362 14.1619 13.5868 13.7866 13.9363 13.3237C14.0445 13.1869 14.1824 13.077 14.3394 13.0025C14.4963 12.928 14.6681 12.8909 14.8415 12.8942H17.168C17.3796 12.8936 17.5875 12.9511 17.7692 13.0606C17.951 13.1701 18.0999 13.3274 18.2 13.5157C18.7717 14.6855 19.7204 15.6242 20.8903 16.1776C22.0602 16.7311 23.3817 16.8664 24.6378 16.5612C25.894 16.2561 27.01 15.5288 27.8026 14.4986C28.5952 13.4685 29.0172 12.1968 28.9995 10.8924C28.9636 9.48664 28.4234 8.14182 27.4793 7.1079C26.5353 6.07399 25.2516 5.42133 23.8668 5.2712Z" fill="#284A74"/>
</svg>
