<svg width="21" height="26" viewBox="0 0 21 26" fill="none" xmlns="http://www.w3.org/2000/svg">
<path d="M7.66284 2.56661C8.29716 2.33632 9.00086 2.05597 9.82845 1.98588C11.221 1.86073 12.6284 2.11605 13.5947 2.56661C13.8822 2.11605 14.1597 1.53031 14.457 0.999647C14.4917 0.92956 14.5512 0.834441 14.6057 0.734315C14.6503 0.644202 14.7098 0.534064 14.7791 0.514039C14.908 0.468983 14.9873 0.53907 15.0418 0.629183C15.0319 0.894516 14.8931 1.01467 14.799 1.18989C14.5363 1.72556 14.234 2.21117 13.9714 2.74684C14.8089 3.23244 15.582 3.80817 16.1618 4.58414C16.6573 5.24497 17.0736 6.02594 17.2917 6.99215C17.3809 7.36262 17.4205 7.78315 17.4156 8.23371C12.9109 8.25374 8.32194 8.25374 3.81725 8.23371C3.83708 6.61668 4.39211 5.44522 5.14041 4.53408C5.19492 4.41893 5.28908 4.34884 5.35846 4.26374C5.58642 4.00842 5.82925 3.7531 6.10676 3.54283C6.45366 3.24246 6.86993 3.00716 7.27134 2.75184C7.02851 2.23119 6.6271 1.5203 6.3149 0.96961C6.23561 0.819422 6.12163 0.53907 6.38428 0.519045C6.42888 0.519045 6.47348 0.544077 6.50817 0.53907C6.73613 0.854466 6.88975 1.21492 7.08302 1.56035C7.29116 1.89076 7.47948 2.22118 7.66284 2.56661ZM7.05329 4.83445C7.0186 4.87951 6.974 4.95961 6.95913 5.0347C6.86993 5.37012 7.1078 5.70054 7.38532 5.77062C7.68761 5.84071 7.94035 5.66549 8.05433 5.49027C8.21291 5.21993 8.08902 4.83946 7.89575 4.69928C7.84124 4.66424 7.70248 4.60416 7.65292 4.59415C7.58355 4.58414 7.49434 4.59415 7.42496 4.60416C7.27134 4.62919 7.12267 4.72932 7.05329 4.83445ZM13.1438 5.16487C13.1339 5.48026 13.3717 5.71055 13.5799 5.76061C13.8475 5.8307 14.12 5.69052 14.2489 5.49027C14.5165 5.04972 14.125 4.49903 13.6245 4.59415C13.3519 4.65923 13.1537 4.8695 13.1438 5.16487Z" fill="#0068F8"/>
<path d="M1.77073 8.514C2.46452 8.49397 3.1038 9.00461 3.24751 9.7105C3.30203 9.9558 3.2822 10.2912 3.2822 10.5716C3.2822 12.3738 3.2822 14.106 3.2822 15.9333C3.2822 16.2387 3.30203 16.5391 3.24751 16.7593C3.10876 17.4202 2.48434 17.9909 1.71622 17.9458C1.01252 17.9108 0.521907 17.4702 0.343503 16.8895C0.249346 16.5741 0.254302 16.1886 0.254302 15.7581C0.254302 14.2011 0.254302 12.539 0.254302 10.882C0.254302 10.4664 0.229524 10.0359 0.298903 9.70549C0.442616 9.04466 0.987738 8.53402 1.77073 8.514Z" fill="#0068F8"/>
<path d="M18.0401 16.8545C17.9509 16.2988 17.9856 15.5428 17.9856 14.867C17.9856 13.7756 17.9856 12.6542 17.9856 11.5428C17.9856 10.9821 17.941 10.4114 17.9856 9.88072C18.0203 9.44017 18.2482 9.11476 18.5158 8.86945C18.8528 8.56907 19.4227 8.37884 19.9777 8.5891C20.1611 8.65919 20.2999 8.73929 20.4237 8.84442C20.6765 9.05468 20.8945 9.35506 20.9639 9.7055C21.0085 9.94079 20.9837 10.2512 20.9837 10.5566C20.9837 12.3338 20.9837 14.081 20.9837 15.8832C20.9837 16.1886 21.0085 16.499 20.9639 16.7443C20.9044 17.0697 20.6963 17.3751 20.4783 17.5704C19.9728 18.0109 19.0956 18.056 18.5654 17.6254C18.3374 17.4452 18.1739 17.1999 18.0401 16.8545Z" fill="#0068F8"/>
<path d="M3.88672 8.7994C8.40131 8.80941 12.9357 8.77937 17.4355 8.80941C17.4553 11.7431 17.4454 14.892 17.4454 17.9258C17.4454 18.3464 17.49 18.8069 17.3909 19.1674C17.3314 19.4227 17.1827 19.618 17.034 19.7982C16.8755 19.9834 16.702 20.1236 16.484 20.2287C16.0132 20.449 15.3888 20.3939 14.69 20.3939C14.6553 21.3952 14.6702 22.5717 14.6702 23.5679C14.6702 24.1286 14.5463 24.464 14.2787 24.7644C14.0359 25.0347 13.6791 25.25 13.1736 25.25C12.6681 25.25 12.3311 25.0498 12.0685 24.7644C11.8009 24.474 11.6522 24.1136 11.6522 23.5879C11.6522 22.5867 11.6522 21.4452 11.6522 20.3989C10.9981 20.3789 10.2696 20.3789 9.60553 20.3989C9.58571 20.9596 9.59562 21.5854 9.59562 22.1912C9.59562 22.7969 9.65014 23.4478 9.5758 23.9584C9.4866 24.6092 9.04555 25.0147 8.51529 25.1799C7.85619 25.3802 7.21196 25.0748 6.88984 24.6593C6.73126 24.449 6.60241 24.1486 6.58754 23.8132C6.55286 22.7168 6.62223 21.5203 6.57763 20.4039C6.31498 20.3789 6.00278 20.3939 5.70544 20.3939C5.4081 20.3939 5.1405 20.3589 4.91254 20.2988C4.54086 20.1336 4.2683 19.9233 4.06016 19.5879C3.9561 19.4277 3.86689 19.2275 3.84212 19.0272C3.80743 18.7969 3.83221 18.5416 3.83221 18.2613C3.83221 15.658 3.83221 13.0247 3.83221 10.3964C3.83221 9.86073 3.82229 9.30003 3.84212 8.82944C3.86194 8.8044 3.87681 8.8044 3.88672 8.7994Z" fill="#0068F8"/>
</svg>
