<svg width="16" height="15" viewBox="0 0 16 15" fill="none" xmlns="http://www.w3.org/2000/svg">
<path d="M7.85262 10.0496C5.13762 10.0496 2.93262 7.79594 2.93262 5.02098C2.93262 2.24603 5.13762 0 7.85262 0C10.5676 0 12.7726 2.25369 12.7726 5.02865C12.7726 7.8036 10.5601 10.0496 7.85262 10.0496ZM7.85262 1.83975C6.13512 1.83975 4.74012 3.26556 4.74012 5.02098C4.74012 6.77641 6.13512 8.20988 7.85262 8.20988C9.57012 8.20988 10.9726 6.78408 10.9726 5.02098C10.9726 3.25789 9.57012 1.83975 7.85262 1.83975Z" fill="#0068F8"/>
<path d="M1.815 14.8637C1.9425 13.9285 2.76 10.0497 7.8525 10.0497C11.94 10.0497 13.17 13.1083 13.5375 14.8637H15.39C14.9325 12.0811 12.99 8.20996 7.8525 8.20996C0.9525 8.20996 0.0825 14.1125 0 14.8637H1.815Z" fill="#0068F8"/>
</svg>
