<svg width="16" height="13" viewBox="0 0 16 13" fill="none" xmlns="http://www.w3.org/2000/svg">
<path d="M8.00281 2.42858C8.0206 2.40686 8.03247 2.38514 8.04433 2.36342C8.37655 1.84761 8.77403 1.38067 9.26049 0.978876C9.55118 0.734544 9.8656 0.52822 10.2156 0.359902C10.5419 0.202444 10.886 0.0938521 11.2479 0.0395561C11.5326 -0.00388062 11.8233 -0.00931021 12.114 0.0124082C12.6242 0.0558449 13.0988 0.202444 13.5497 0.414198C13.8759 0.566227 14.1844 0.745403 14.4751 0.946298C14.6353 1.06032 14.7777 1.19063 14.9082 1.33723C15.2048 1.66843 15.4362 2.03765 15.6142 2.43401C15.7803 2.80865 15.8989 3.19415 15.9582 3.59051C15.9998 3.91086 16.0116 4.22577 15.9879 4.54612C15.9404 5.28997 15.7091 5.97953 15.3294 6.63651C15.0446 7.12518 14.6946 7.5704 14.2912 7.98305C13.9234 8.3577 13.5259 8.69433 13.0988 9.00925C12.6479 9.34588 12.1793 9.66623 11.7165 9.98657C11.147 10.3829 10.5775 10.7793 10.0198 11.1919C9.62237 11.4851 9.23083 11.7892 8.85708 12.115C8.67317 12.2779 8.48334 12.4408 8.31723 12.6199C8.21638 12.7339 8.12146 12.848 8.02654 12.962C8.01467 12.9729 8.00874 12.9837 7.99687 13C7.98501 12.9837 7.97314 12.9783 7.96721 12.9674C7.77144 12.7122 7.54601 12.4842 7.30278 12.267C6.78072 11.7946 6.21713 11.3657 5.64169 10.953C5.05437 10.535 4.46112 10.1223 3.87381 9.70966C3.51193 9.45447 3.14412 9.20471 2.7941 8.93866C2.27798 8.54773 1.79745 8.11879 1.38218 7.63556C0.996565 7.19033 0.670279 6.71253 0.432981 6.18586C0.255007 5.80579 0.130425 5.41485 0.0651677 5.00221C0.0117755 4.67643 -0.0119543 4.35065 0.00584305 4.02488C0.0414378 3.35704 0.225344 2.72721 0.545697 2.12995C0.717739 1.81503 0.919443 1.52184 1.17454 1.26121C1.31099 1.12005 1.4593 0.995165 1.63134 0.886573C1.95169 0.674819 2.28984 0.490213 2.64579 0.338184C2.94835 0.213303 3.25683 0.121 3.57719 0.0612745C3.89161 0.00154897 4.21789 -0.0147398 4.54418 0.0178378C5.0603 0.0667041 5.54083 0.224162 5.98577 0.468494C6.34172 0.66396 6.66207 0.902862 6.95276 1.16891C7.33837 1.52727 7.66466 1.92363 7.94941 2.35799C7.96128 2.37971 7.97314 2.40686 8.00281 2.42858Z" fill="#284A74"/>
</svg>
