<svg width="18" height="15" viewBox="0 0 18 15" fill="none" xmlns="http://www.w3.org/2000/svg">
<path d="M9.00316 2.80221C9.02318 2.77715 9.03653 2.75209 9.04988 2.72703C9.42362 2.13186 9.87078 1.59308 10.4181 1.12947C10.7451 0.847551 11.0988 0.609484 11.4926 0.415272C11.8596 0.233589 12.2467 0.108291 12.6538 0.0456417C12.9742 -0.00447764 13.3012 -0.0107426 13.6283 0.0143171C14.2022 0.0644365 14.7361 0.233589 15.2434 0.477921C15.6104 0.653339 15.9575 0.860081 16.2845 1.09188C16.4647 1.22345 16.6249 1.3738 16.7717 1.54296C17.1054 1.92512 17.3657 2.35113 17.5659 2.80847C17.7528 3.24075 17.8863 3.68556 17.953 4.1429C17.9997 4.51253 18.0131 4.87589 17.9864 5.24552C17.933 6.10382 17.6727 6.89946 17.2456 7.65752C16.9252 8.22136 16.5315 8.73508 16.0776 9.21122C15.6638 9.64349 15.2167 10.0319 14.7361 10.3953C14.2289 10.7837 13.7017 11.1533 13.1811 11.523C12.5404 11.9803 11.8997 12.4376 11.2723 12.9138C10.8252 13.2521 10.3847 13.6029 9.96422 13.9788C9.75732 14.1668 9.54375 14.3547 9.35688 14.5615C9.24342 14.693 9.13664 14.8246 9.02985 14.9561C9.01651 14.9687 9.00983 14.9812 8.99648 15C8.98314 14.9812 8.96979 14.9749 8.96311 14.9624C8.74287 14.668 8.48926 14.4048 8.21562 14.1542C7.62831 13.6092 6.99428 13.1143 6.3469 12.6381C5.68617 12.1557 5.01877 11.6796 4.35804 11.2035C3.95092 10.909 3.53713 10.6208 3.14336 10.3138C2.56272 9.86277 2.02213 9.36784 1.55495 8.81026C1.12114 8.29654 0.754064 7.74522 0.487103 7.13753C0.286882 6.69898 0.146728 6.24791 0.0733137 5.77178C0.0132475 5.39588 -0.0134486 5.01999 0.00657343 4.64409C0.0466176 3.87351 0.253512 3.14678 0.61391 2.45763C0.807456 2.09427 1.03437 1.75596 1.32136 1.45525C1.47486 1.29236 1.64171 1.14827 1.83526 1.02297C2.19565 0.778637 2.57607 0.56563 2.97651 0.390212C3.31689 0.246119 3.66394 0.139615 4.02434 0.0707014C4.37806 0.00178728 4.74513 -0.0170075 5.1122 0.020582C5.69284 0.0769663 6.23344 0.258649 6.73399 0.54057C7.13443 0.766107 7.49483 1.04176 7.82185 1.34874C8.25567 1.76223 8.62274 2.21957 8.94309 2.72076C8.95644 2.74582 8.96979 2.77715 9.00316 2.80221Z" fill="#DEE5EB"/>
</svg>
