<svg width="288" height="38" viewBox="0 0 288 38" fill="none" xmlns="http://www.w3.org/2000/svg">
<path d="M8.49 0V26.3449L31.0136 0H39.2983V37.9401H30.8082V11.7311L8.35309 37.9401H0V0H8.49Z" fill="#284A74"/>
<path d="M54.6969 0V14.4752H76.0568V0H84.6139V37.9401H76.0568V22.1615H54.6969V37.9401H46.1398V0H54.6969Z" fill="#284A74"/>
<path d="M111.654 0H120.143V4.11617H127.811C136.711 4.11617 143.419 10.086 143.419 19.0044C143.419 27.9227 136.711 33.6168 127.811 33.6168H120.143V37.9401H111.654V33.6181H103.986C95.0863 33.6181 88.3762 27.9255 88.3762 19.0071C88.3762 10.0887 95.085 4.11892 103.986 4.11892H111.654V0ZM104.328 11.9383C99.6729 11.9383 96.9347 14.3394 96.9347 18.9358C96.9347 23.4663 99.9468 25.7988 104.328 25.7988H111.654V11.9383H104.328ZM120.143 25.7947H127.469C131.849 25.7947 134.862 23.4635 134.862 18.9344C134.862 14.3366 132.124 11.9355 127.469 11.9355H120.143V25.7947Z" fill="#284A74"/>
<path d="M173.127 0L189.216 37.9401H180.178L177.714 32.1775H154.37L151.904 37.9401H142.731L159.23 0H173.127ZM157.519 24.6998H174.362L167.516 7.61629H164.573L157.519 24.6998Z" fill="#284A74"/>
<path d="M217.008 0C225.908 0 232.616 5.96982 232.616 14.8882C232.616 23.8066 225.908 29.502 217.008 29.502H203.248V37.9401H194.689V0H217.008ZM203.248 21.6785H216.665C221.047 21.6785 224.059 19.2774 224.059 14.8868C224.059 10.4962 221.047 7.82073 216.665 7.82073H203.248V21.6785Z" fill="#284A74"/>
<path d="M249.593 0L262.874 27.5097H263.216L277.047 0H288V37.9401H279.581V11.3881H279.17L266.366 37.9401H259.178L246.855 11.3881H246.444V37.9401H238.159V0H249.593Z" fill="#284A74"/>
</svg>
