<svg width="9" height="12" viewBox="0 0 9 12" fill="none" xmlns="http://www.w3.org/2000/svg">
<path d="M4.50345 12C4.66134 11.8578 4.81756 11.7238 4.96718 11.5832C5.9558 10.6538 6.85019 9.64334 7.59165 8.50305C8.07687 7.75471 8.48439 6.96668 8.74146 6.10918C9.01424 5.20125 9.0969 4.28339 8.8638 3.35314C8.40669 1.51908 6.79233 0.164619 4.9027 0.0166047C3.83886 -0.0669119 2.85355 0.162139 1.97073 0.759985C0.869695 1.50585 0.224941 2.54856 0.0422611 3.86995C-0.0908222 4.83163 0.102604 5.747 0.451432 6.63674C0.958141 7.93001 1.74094 9.05128 2.63367 10.1023C3.15443 10.715 3.71239 11.2913 4.3092 11.8297C4.36954 11.8851 4.43154 11.9372 4.50345 12ZM3.00482 4.53064C2.97919 3.70457 3.62229 3.02734 4.45882 2.99922C5.27881 2.97194 5.97233 3.62022 5.9963 4.43637C6.0211 5.29221 5.39288 5.96696 4.54726 5.99342C3.69917 6.01988 3.0321 5.38648 3.00482 4.53064Z" fill="#0068F8"/>
</svg>
