<svg width="19" height="25" viewBox="0 0 19 25" fill="none" xmlns="http://www.w3.org/2000/svg">
<path d="M9.37111 25C9.04207 24.7037 8.71648 24.4246 8.40467 24.1318C6.34432 22.1954 4.48035 20.0903 2.93509 17.7147C1.92386 16.1556 1.07457 14.5139 0.538808 12.7275C-0.0296835 10.8359 -0.201954 8.92374 0.283848 6.9857C1.2365 3.16474 4.60094 0.342957 8.53904 0.0345932C10.7562 -0.1394 12.8096 0.337789 14.6495 1.5833C16.9441 3.13718 18.2878 5.30951 18.6685 8.06239C18.9459 10.0659 18.5428 11.9729 17.8158 13.8266C16.7598 16.5209 15.1284 18.8568 13.2679 21.0464C12.1826 22.3229 11.0197 23.5236 9.77594 24.6451C9.65018 24.7605 9.52098 24.8691 9.37111 25ZM12.4944 9.43883C12.5478 7.71785 11.2075 6.30695 9.46413 6.24838C7.75521 6.19153 6.30986 7.54213 6.2599 9.24244C6.20822 11.0254 7.51748 12.4312 9.2798 12.4863C11.0473 12.5414 12.4375 11.2218 12.4944 9.43883Z" fill="#284A74"/>
</svg>
