<svg width="30" height="24" viewBox="0 0 30 24" fill="none" xmlns="http://www.w3.org/2000/svg">
<path d="M23.6051 4.86879C23.1654 5.10901 22.7246 5.34924 22.2849 5.59052C18.5356 7.64767 14.7852 9.70481 11.0359 11.7609C8.91607 12.9232 6.79424 14.0845 4.67544 15.251C4.56627 15.3108 4.49348 15.3077 4.39139 15.2353C3.05804 14.287 1.72368 13.3418 0.386293 12.4008C0.126498 12.2172 -0.0342315 11.9854 0.00620356 11.6497C0.0466386 11.3109 0.268021 11.1367 0.560164 11.0266C4.47327 9.56215 8.38637 8.0956 12.2985 6.62906C17.7228 4.59394 23.1482 2.55777 28.5746 0.524752C28.709 0.474399 28.8627 0.371594 28.989 0.53734C29.1063 0.691548 28.9921 0.820579 28.9193 0.946462C24.895 7.8323 20.8707 14.7181 16.8454 21.604C16.6564 21.9281 16.4673 22.2512 16.2773 22.5743C15.9851 23.0684 15.5919 23.1618 15.134 22.8397C14.0412 22.0697 12.9505 21.2987 11.8638 20.5203C11.7384 20.4301 11.6606 20.4374 11.5393 20.5224C10.4486 21.283 9.35277 22.0351 8.259 22.7904C8.23272 22.8083 8.20644 22.8271 8.18015 22.845C8.02145 22.953 7.85263 22.9897 7.68179 22.8901C7.51702 22.7936 7.47052 22.6299 7.47153 22.44C7.47456 21.3753 7.47355 20.3105 7.47355 19.2468C7.47355 18.6919 7.47759 18.1369 7.47052 17.5809C7.4685 17.4561 7.50691 17.3806 7.60294 17.3061C10.121 15.3612 12.6371 13.4142 15.1522 11.4651C17.5318 9.62089 19.9104 7.7746 22.29 5.92936C22.7348 5.58422 23.1806 5.24224 23.6253 4.89816C23.6173 4.88872 23.6112 4.87823 23.6051 4.86879Z" fill="white"/>
</svg>
