<svg width="30" height="22" viewBox="0 0 30 22" fill="none" xmlns="http://www.w3.org/2000/svg">
<path d="M23.6051 4.30822C23.1654 4.54227 22.7246 4.77631 22.2849 5.01138C18.5356 7.01559 14.7852 9.01981 11.0359 11.023C8.91607 12.1554 6.79424 13.2868 4.67544 14.4233C4.56627 14.4816 4.49348 14.4785 4.39139 14.408C3.05804 13.4841 1.72368 12.5632 0.386293 11.6464C0.126498 11.4676 -0.0342315 11.2417 0.00620356 10.9147C0.0466386 10.5845 0.268021 10.4149 0.560164 10.3076C4.47327 8.88081 8.38637 7.452 12.2985 6.0232C17.7228 4.04045 23.1482 2.05667 28.5746 0.0759683C28.709 0.0269106 28.8627 -0.073249 28.989 0.0882328C29.1063 0.238472 28.9921 0.364183 28.9193 0.486827C24.895 7.19547 20.8707 13.9041 16.8454 20.6128C16.6564 20.9286 16.4673 21.2434 16.2773 21.5581C15.9851 22.0395 15.5919 22.1305 15.134 21.8167C14.0412 21.0665 12.9505 20.3154 11.8638 19.557C11.7384 19.4691 11.6606 19.4763 11.5393 19.559C10.4486 20.3 9.35277 21.0328 8.259 21.7687C8.23272 21.7861 8.20644 21.8045 8.18015 21.8218C8.02145 21.9271 7.85263 21.9629 7.68179 21.8658C7.51702 21.7718 7.47052 21.6123 7.47153 21.4273C7.47456 20.39 7.47355 19.3526 7.47355 18.3162C7.47355 17.7756 7.47759 17.2349 7.47052 16.6933C7.4685 16.5716 7.50691 16.498 7.60294 16.4255C10.121 14.5306 12.6371 12.6337 15.1522 10.7348C17.5318 8.93804 19.9104 7.13926 22.29 5.3415C22.7348 5.00525 23.1806 4.67207 23.6253 4.33684C23.6173 4.32764 23.6112 4.31742 23.6051 4.30822Z" fill="#284A74"/>
</svg>
