<svg width="24" height="23" viewBox="0 0 24 23" fill="none" xmlns="http://www.w3.org/2000/svg">
<path d="M19.0288 16.5319L21.3926 17.1294C22.4634 17.3962 23.5 16.5841 23.5 15.4645V3.86235C23.5 2.87617 22.8393 2.01762 21.8938 1.77397L15.1159 0.0510612C14.0451 -0.215787 13.0085 0.59636 13.0085 1.71596V3.80434L8.73665 2.71375C7.66585 2.4469 6.62923 3.25905 6.62923 4.37865V6.47283L2.35742 5.38223C1.28662 5.11538 0.25 5.92753 0.25 7.04714V18.6492C0.25 19.6354 0.910706 20.494 1.8505 20.726L8.62843 22.4489C9.69923 22.7158 10.7359 21.9036 10.7359 20.784V9.20513C10.7359 8.22475 10.1207 7.66205 9.90997 7.48221C9.8701 7.44741 9.85871 7.3894 9.88719 7.34299C9.92136 7.30238 9.97262 7.28498 10.0239 7.29078C10.9181 7.56923 11.7668 8.4974 11.8636 9.67501L12.1541 18.5448C12.1598 18.8291 12.3477 19.0901 12.6154 19.1887L15.0134 19.8037C16.0842 20.0705 17.1208 19.2468 17.1208 18.1388V6.55404C17.1208 5.57367 16.517 5.01096 16.2949 4.83113C16.255 4.79632 16.2436 4.73831 16.2721 4.69191C16.2949 4.6513 16.3575 4.6339 16.4088 4.6397C17.303 4.91815 18.1631 5.84632 18.2485 7.02393L18.5447 15.8879C18.5447 16.1954 18.7384 16.4448 19.0288 16.5319Z" fill="#0068F8"/>
</svg>
