<svg width="22" height="22" viewBox="0 0 22 22" fill="none" xmlns="http://www.w3.org/2000/svg">
<g clip-path="url(#clip0_2878_6271)">
<path d="M10.4268 20.8536C4.68114 20.8536 0 16.1725 0 10.4268C0 4.68114 4.68114 0 10.4268 0C16.1725 0 20.8536 4.68114 20.8536 10.4268C20.8536 16.1725 16.1725 20.8536 10.4268 20.8536ZM10.4268 1.86973C5.70471 1.86973 1.86973 5.70471 1.86973 10.4268C1.86973 15.1489 5.70471 18.9839 10.4268 18.9839C15.1489 18.9839 18.9839 15.1489 18.9839 10.4268C18.9839 5.70471 15.1489 1.86973 10.4268 1.86973Z" fill="#284A74"/>
<path d="M17.1757 15.9407L15.8536 17.2628L20.5823 21.9914L21.9043 20.6694L17.1757 15.9407Z" fill="#284A74"/>
</g>
<defs>
<clipPath id="clip0_2878_6271">
<rect width="22" height="22" fill="white"/>
</clipPath>
</defs>
</svg>
