<svg width="22" height="22" viewBox="0 0 22 22" fill="none" xmlns="http://www.w3.org/2000/svg">
<g clip-path="url(#clip0_3134_1786)">
<path d="M20.147 12.8552C20.1582 12.6679 20.1663 12.4873 20.1663 12.3744C20.1663 9.5717 18.899 6.9745 16.7619 5.24514C16.3683 4.92665 15.7911 4.98754 15.4726 5.38109C15.1542 5.77464 15.215 6.35184 15.6086 6.67033C17.32 8.05525 18.333 10.1311 18.333 12.3744C18.333 12.3746 18.333 12.3747 18.333 12.3748C16.3079 12.3749 14.6665 14.0163 14.6665 16.0415C14.6665 18.0666 16.308 19.7081 18.3332 19.7081C20.3583 19.7081 21.9999 18.0666 21.9999 16.0415C21.9999 14.6763 21.2534 13.4864 20.147 12.8552ZM18.3332 17.8748C17.3206 17.8748 16.4999 17.0541 16.4999 16.0414C16.4999 15.0287 17.3205 14.2081 18.3332 14.2081C19.3459 14.2081 20.1665 15.0287 20.1665 16.0414C20.1665 17.0541 19.3458 17.8748 18.3332 17.8748Z" fill="#8BA0B4"/>
<path d="M2.75174 11.4357C3.24545 11.5476 3.7365 11.2382 3.84843 10.7444C4.33793 8.58611 5.78735 6.7745 7.74075 5.80362C8.34992 6.98389 9.58029 7.79131 11.0001 7.79131C13.0253 7.79131 14.6668 6.14982 14.6668 4.12466C14.6668 2.0995 13.0253 0.458008 11.0001 0.458008C9.02668 0.458008 7.41827 2.01691 7.33736 3.97049C4.68774 5.12656 2.70696 7.4886 2.0605 10.339C1.94852 10.8327 2.25803 11.3237 2.75174 11.4357ZM11.0001 2.29136C12.0128 2.29136 12.8335 3.11202 12.8335 4.1247C12.8335 5.13739 12.0128 5.95801 11.0001 5.95801C10.0926 5.95801 9.33975 5.2987 9.19314 4.433C9.19155 4.42338 9.18987 4.41375 9.18798 4.40417C9.17406 4.31304 9.16684 4.21975 9.16684 4.1247C9.1668 3.11202 9.9875 2.29136 11.0001 2.29136Z" fill="#8BA0B4"/>
<path d="M13.4447 19.2912C12.6683 19.566 11.8452 19.708 10.9997 19.708C9.38399 19.708 7.85318 19.1838 6.60009 18.2417C7.06041 17.6289 7.33335 16.8672 7.33335 16.0417C7.33335 14.0165 5.69186 12.375 3.6667 12.375C1.64154 12.375 0 14.0164 0 16.0417C0 18.0669 1.64149 19.7083 3.66665 19.7083C4.18352 19.7083 4.67513 19.6008 5.1211 19.4079C6.75211 20.7735 8.81603 21.5414 10.9996 21.5414C12.054 21.5414 13.084 21.3636 14.0564 21.0195C14.5336 20.8506 14.7836 20.3268 14.6147 19.8495C14.4457 19.3722 13.922 19.1223 13.4447 19.2912ZM1.83335 16.0417C1.83335 15.029 2.65401 14.2083 3.6667 14.2083C4.67938 14.2083 5.5 15.029 5.5 16.0417C5.5 17.0543 4.67934 17.875 3.66665 17.875C2.65396 17.875 1.83335 17.0543 1.83335 16.0417Z" fill="#8BA0B4"/>
</g>
<defs>
<clipPath id="clip0_3134_1786">
<rect width="22" height="22" fill="white"/>
</clipPath>
</defs>
</svg>
