<svg width="21" height="21" viewBox="0 0 21 21" fill="none" xmlns="http://www.w3.org/2000/svg">
<path d="M0 11.0224C0.026819 10.7609 0.0536379 10.4928 0.0871616 10.2313C0.274894 8.77634 0.791159 7.4421 1.60914 6.22854C2.1187 5.47761 2.72212 4.80713 3.41942 4.23053C3.43953 4.21712 3.45294 4.20371 3.48646 4.18359C3.71442 4.59929 3.99602 4.96805 4.35138 5.29658C4.31115 5.3301 4.27762 5.36363 4.2441 5.39045C2.75565 6.68446 1.81698 8.2936 1.51527 10.2447C1.16662 12.5511 1.70971 14.6497 3.17805 16.4667C4.82741 18.5116 7.00645 19.5106 9.628 19.5509C9.71517 19.5509 9.80903 19.5441 9.89619 19.5509C9.92972 19.5509 9.97665 19.5844 9.98336 19.6112C10.0839 20.0403 10.1778 20.4761 10.2717 20.9052C10.2717 20.9119 10.2717 20.9186 10.265 20.9387C10.1174 20.9454 9.96994 20.9656 9.82244 20.9656C6.75838 20.9723 4.20387 19.8459 2.20586 17.5126C1.00571 16.1113 0.308418 14.4754 0.0737521 12.645C0.0402284 12.4237 0.026819 12.1958 0 11.9678C0 11.6527 0 11.3375 0 11.0224Z" fill="#0068F8"/>
<path d="M20.8249 11.7871C20.7646 12.0553 20.6036 12.2631 20.4427 12.4777C19.142 14.2075 17.8413 15.9306 16.5473 17.6671C16.4199 17.8348 16.2657 17.9554 16.078 18.0426C15.9237 18.1164 15.7896 18.2236 15.6488 18.3175C14.509 19.0952 13.3759 19.8797 12.2294 20.6507C12.1356 20.7111 12.0216 20.7647 11.9143 20.7781C11.626 20.8117 11.3846 20.5234 11.4182 20.2015C11.4249 20.1278 11.445 20.0607 11.4718 19.987C11.9411 18.5656 12.4172 17.1509 12.8865 15.7295C12.8999 15.6959 12.9133 15.6624 12.9133 15.6289C12.92 15.3138 13.0943 15.0858 13.2754 14.8444C14.5828 13.1079 15.8902 11.3714 17.1976 9.63486C17.5865 9.1186 18.1363 9.05155 18.6459 9.44713C19.1755 9.86282 19.7052 10.2852 20.2416 10.6875C20.5165 10.8954 20.7512 11.1233 20.8249 11.472C20.8249 11.5859 20.8249 11.6865 20.8249 11.7871ZM18.143 13.9393C17.5128 13.4499 16.8892 12.9738 16.2523 12.4844C15.4477 13.5571 14.6498 14.6165 13.8453 15.6825C14.4755 16.172 15.0991 16.6614 15.7226 17.1509C16.5339 16.0781 17.3384 15.0121 18.143 13.9393ZM16.8624 11.6731C17.4859 12.176 18.1028 12.6721 18.7263 13.1683C19.028 12.766 19.323 12.3838 19.6046 11.9882C19.7521 11.7871 19.7052 11.5055 19.5108 11.3513C19.1286 11.0429 18.7464 10.7411 18.3576 10.4461C18.1564 10.2919 17.8882 10.3322 17.7273 10.5266C17.6804 10.5802 17.6402 10.6406 17.5932 10.7009C17.3451 11.0227 17.1105 11.3446 16.8624 11.6731ZM13.5234 16.8223C13.5033 16.8559 13.4899 16.876 13.4832 16.9028C13.1346 17.694 12.7859 18.4851 12.4373 19.2696C12.4172 19.3098 12.4105 19.35 12.4038 19.3903C12.3903 19.4774 12.397 19.5646 12.4909 19.6115C12.5781 19.6584 12.6518 19.6115 12.7189 19.5512C12.7323 19.5378 12.7457 19.5244 12.7591 19.5109C13.3491 18.9209 13.9391 18.3242 14.5292 17.7342C14.556 17.7074 14.5828 17.6805 14.6096 17.647C14.2476 17.3654 13.8922 17.0972 13.5234 16.8223Z" fill="#0068F8"/>
<path d="M10.2247 0.00670474C10.3186 0.026819 10.4192 0.0469332 10.513 0.0737521C11.0829 0.241371 11.4919 0.750931 11.5322 1.34095C11.5389 1.43481 11.5657 1.45493 11.6528 1.45493C12.082 1.44822 12.5111 1.45493 12.9335 1.45493C13.7648 1.44822 14.4085 2.07176 14.4152 2.90315C14.4152 3.13111 14.4286 3.36578 14.3951 3.59374C14.3146 4.25751 13.7514 4.78718 13.081 4.814C12.5781 4.83412 12.082 4.82071 11.5791 4.82071C9.86268 4.82071 8.14627 4.814 6.42986 4.82071C6.04098 4.82071 5.67893 4.76707 5.3638 4.51899C5.02186 4.2441 4.82742 3.86863 4.81402 3.41271C4.80731 3.24509 4.81402 3.08418 4.81402 2.91656C4.82072 2.08517 5.44426 1.46163 6.27565 1.45493C6.71146 1.45493 7.14726 1.45493 7.58307 1.45493C7.66353 1.45493 7.69705 1.43481 7.70376 1.34765C7.7641 0.643655 8.25355 0.12739 8.95754 0.0201142C8.97766 0.0201142 9.00448 0.00670474 9.02459 0C9.42688 0.00670474 9.82245 0.00670474 10.2247 0.00670474ZM8.76981 2.56121C8.70947 2.56121 8.66253 2.56121 8.62231 2.56121C7.93842 2.56121 7.24784 2.56121 6.56395 2.56121C6.42315 2.56121 6.28906 2.57462 6.14826 2.60144C6.00075 2.63496 5.94712 2.71542 5.94041 2.86292C5.94041 3.03725 5.94041 3.21827 5.94041 3.3926C5.94041 3.5334 5.98734 3.60044 6.12144 3.63397C6.23542 3.66079 6.3561 3.6809 6.47679 3.6809C8.54855 3.68761 10.6203 3.68761 12.6854 3.68761C12.7859 3.68761 12.8932 3.6809 12.9938 3.65408C13.1547 3.62056 13.262 3.51328 13.2754 3.34566C13.2888 3.20486 13.2955 3.05736 13.2821 2.91656C13.2687 2.74224 13.1681 2.62155 12.9938 2.58803C12.8932 2.56791 12.7927 2.55451 12.6988 2.55451C12.0015 2.55451 11.3042 2.55451 10.6069 2.55451C10.56 2.55451 10.5197 2.55451 10.4661 2.55451C10.4661 2.35336 10.4728 2.16563 10.4661 1.9779C10.4594 1.67618 10.3722 1.4147 10.0906 1.25379C9.4671 0.89173 8.76981 1.28731 8.76311 2.00472C8.76981 2.18574 8.76981 2.36007 8.76981 2.56121Z" fill="#0068F8"/>
<path d="M8.21331 10.2051C9.55426 10.2051 10.8952 10.2051 12.2362 10.2051C12.3702 10.2051 12.4976 10.2118 12.5915 10.3124C12.6586 10.3861 12.7055 10.4867 12.7323 10.5805C12.7591 10.6744 12.7457 10.7817 12.739 10.8823C12.7323 11.1706 12.558 11.3382 12.2697 11.3382C11.4517 11.3382 10.627 11.3382 9.80904 11.3382C7.96524 11.3382 6.12143 11.3382 4.28433 11.3382C4.22399 11.3382 4.17035 11.3382 4.11001 11.3382C3.86864 11.3315 3.69432 11.1572 3.68091 10.9091C3.68091 10.8353 3.68091 10.7616 3.68091 10.6878C3.68091 10.3727 3.84853 10.2051 4.16365 10.2051C4.82742 10.2051 5.49789 10.2051 6.16166 10.2051C6.84554 10.2051 7.52943 10.2051 8.21331 10.2051Z" fill="#0068F8"/>
<path d="M8.76976 8.22685C7.61655 8.22685 6.45663 8.22685 5.30341 8.22685C4.97488 8.22685 4.81396 8.06594 4.81396 7.7374C4.81396 7.67706 4.81396 7.62342 4.81396 7.56308C4.81396 7.26807 4.98829 7.09375 5.2833 7.09375C5.79286 7.09375 6.30912 7.09375 6.81868 7.09375C8.62226 7.09375 10.4258 7.09375 12.2294 7.09375C12.5781 7.09375 12.739 7.25466 12.7323 7.60331C12.7323 7.65695 12.7323 7.71059 12.7323 7.76422C12.7256 8.05253 12.5579 8.22685 12.2696 8.22685C11.8875 8.22685 11.5053 8.22685 11.1231 8.22685C10.3387 8.22685 9.55421 8.22685 8.76976 8.22685Z" fill="#0068F8"/>
<path d="M8.34068 14.4495C7.34168 14.4495 6.34267 14.4428 5.34366 14.4562C4.96149 14.4629 4.78047 14.235 4.80728 13.9265C4.81399 13.8729 4.80728 13.8193 4.80728 13.7656C4.81399 13.4974 4.98831 13.3164 5.26321 13.3164C6.59074 13.3164 7.92499 13.3164 9.25253 13.3164C9.96323 13.3164 10.6806 13.3164 11.3913 13.3164C11.7199 13.3164 11.8808 13.4773 11.8875 13.8059C11.8875 13.8662 11.8875 13.9198 11.8875 13.9802C11.8875 14.2886 11.7199 14.4495 11.4115 14.4495C10.3923 14.4495 9.36651 14.4495 8.34068 14.4495Z" fill="#0068F8"/>
<path d="M18.2638 7.30192C17.9352 7.37568 17.6201 7.44272 17.305 7.50977C17.1843 7.53659 17.0703 7.57682 16.9496 7.62375C16.8692 7.65727 16.8357 7.63716 16.7954 7.56341C16.3797 6.82589 15.8568 6.16882 15.2399 5.59892C15.0857 5.45142 14.9181 5.31732 14.7505 5.16982C15.0723 4.82787 15.3539 4.45911 15.5618 4.0166C16.715 4.91504 17.6067 6.00791 18.2638 7.30192Z" fill="#0068F8"/>
</svg>
