<svg width="23" height="21" viewBox="0 0 23 21" fill="none" xmlns="http://www.w3.org/2000/svg">
<path d="M22.8606 0.948755C22.7619 0.556235 22.3868 0.399228 21.9426 0.566049C20.5459 1.10086 19.1443 1.63567 17.7476 2.17047C15.3638 3.08308 12.98 4.0006 10.5962 4.91811C8.70598 5.64428 6.81573 6.36553 4.92548 7.09169C3.52877 7.6265 2.13206 8.16622 0.73042 8.69612C0.449104 8.80406 0.271437 8.98069 0.251696 9.2849C0.231954 9.56947 0.38495 9.78536 0.690943 9.89821C2.24558 10.4772 3.79529 11.066 5.35486 11.6204C5.72502 11.7529 5.90762 11.9295 6.02113 12.3073C6.60844 14.2552 7.25004 16.1883 7.82748 18.1411C7.98048 18.6661 8.54311 18.8379 8.95768 18.4846C9.85592 17.7241 10.7739 16.993 11.6919 16.257C12.1114 15.9185 12.4667 15.9185 12.8961 16.2276C14.5988 17.4542 16.3064 18.6808 18.0091 19.9124C18.4435 20.2264 18.9222 20.0547 19.0308 19.5297C19.3614 17.9596 19.6822 16.3895 20.0129 14.8194C20.5212 12.3858 21.0395 9.95218 21.5478 7.51856C21.9031 5.83563 22.2536 4.1527 22.604 2.46486C22.7027 1.99875 22.7915 1.53754 22.8754 1.09104C22.8754 1.03707 22.8705 0.992913 22.8606 0.948755ZM17.9252 4.83961C17.5354 5.21741 17.1356 5.5854 16.7408 5.95339C15.4279 7.1702 14.1151 8.38701 12.7974 9.60382C11.7708 10.5508 10.7542 11.5026 9.71773 12.4349C9.239 12.8666 9.01691 13.3867 8.95768 14.0099C8.90339 14.5839 8.81455 15.1531 8.73559 15.7222C8.71584 15.8547 8.64675 15.9528 8.49376 15.9626C8.33583 15.9725 8.25192 15.894 8.20751 15.7468C8.00516 15.0255 7.79293 14.3042 7.58564 13.5781C7.41784 12.9795 7.25498 12.3809 7.08718 11.7872C7.0773 11.7431 7.07237 11.6989 7.06744 11.6744C7.09705 11.2573 7.28459 10.958 7.635 10.7421C8.75039 10.065 9.86579 9.37812 10.9812 8.69612C13.1972 7.33702 15.4131 5.97792 17.6291 4.62372C17.6587 4.6041 17.6933 4.56975 17.7229 4.56975C17.8068 4.56975 17.8907 4.58447 17.9746 4.59919C17.9549 4.6826 17.9697 4.79545 17.9252 4.83961Z" fill="#0068F8"/>
</svg>
