<svg width="21" height="20" viewBox="0 0 21 20" fill="none" xmlns="http://www.w3.org/2000/svg">
<g clip-path="url(#clip0_2878_6281)">
<path d="M10.47 13.4373C6.85003 13.4373 3.91003 10.4324 3.91003 6.73249C3.91003 3.03255 6.85003 0.0378418 10.47 0.0378418C14.09 0.0378418 17.03 3.04277 17.03 6.74271C17.03 10.4426 14.08 13.4373 10.47 13.4373ZM10.47 2.49084C8.18003 2.49084 6.32003 4.39192 6.32003 6.73249C6.32003 9.07306 8.18003 10.9844 10.47 10.9844C12.76 10.9844 14.63 9.08328 14.63 6.73249C14.63 4.38169 12.76 2.49084 10.47 2.49084Z" fill="white"/>
<path d="M2.42 19.8561C2.59 18.6091 3.68 13.4374 10.47 13.4374C15.92 13.4374 17.56 17.5155 18.05 19.8561H20.52C19.91 16.1459 17.32 10.9844 10.47 10.9844C1.27 10.9844 0.11 18.8544 0 19.8561H2.42Z" fill="white"/>
</g>
<defs>
<clipPath id="clip0_2878_6281">
<rect width="20.51" height="19.8182" fill="white" transform="translate(0 0.0378418)"/>
</clipPath>
</defs>
</svg>
