<svg width="35" height="30" viewBox="0 0 35 30" fill="none" xmlns="http://www.w3.org/2000/svg">
<g clip-path="url(#clip0_2878_6257)">
<path d="M17.4786 5.99393C22.9901 5.99393 28.4994 5.99393 34.0109 5.99594C34.1513 5.99594 34.2958 5.99995 34.4301 6.03404C34.7639 6.11425 34.9674 6.36492 34.9939 6.69982C35 6.78203 34.998 6.86425 34.998 6.94447C34.998 14.3141 34.998 21.6858 34.998 29.0554C34.998 29.1457 35 29.2359 34.9919 29.3262C34.9593 29.6631 34.7191 29.9237 34.3813 29.9779C34.2592 29.9979 34.133 30 34.0088 30C23.0043 30 11.9998 30 0.995232 30C0.862941 30 0.728615 29.9959 0.59836 29.9739C0.29511 29.9217 0.0610572 29.6791 0.0183171 29.3783C0.00407048 29.266 0 29.1497 0 29.0354C0 21.6737 0 14.3101 0 6.94848C0 6.86626 0 6.78404 0.00610572 6.70383C0.0468105 6.25864 0.339885 5.99393 0.797814 5.99393C2.59289 5.99193 4.38797 5.99393 6.18305 5.99393C9.94825 5.99393 13.7134 5.99393 17.4786 5.99393ZM1.54678 7.518C1.54678 14.5207 1.54678 21.4993 1.54678 28.4699C12.1992 28.4699 22.8313 28.4699 33.4614 28.4699C33.4614 21.4752 33.4614 14.5026 33.4614 7.518C22.8171 7.518 12.189 7.518 1.54678 7.518Z" fill="#284A74"/>
<path d="M17.4807 2.99797C21.7262 2.99797 25.9717 2.99797 30.2192 2.99797C30.3434 2.99797 30.4696 2.99596 30.5917 3.02002C30.9763 3.09222 31.2206 3.41107 31.2043 3.8001C31.188 4.16508 30.9071 4.45986 30.5286 4.50198C30.439 4.512 30.3454 4.51 30.2538 4.51C21.6956 4.51 13.1375 4.51 4.57928 4.51C4.08065 4.51 3.71431 4.18313 3.72041 3.74797C3.72855 3.3108 4.08879 2.99997 4.59353 2.99997C8.88992 2.99797 13.1843 2.99797 17.4807 2.99797Z" fill="#284A74"/>
<path d="M17.4501 0.00200535C20.4582 0.00200535 23.4663 0.0040107 26.4764 0C26.8021 0 27.0911 0.0581551 27.2803 0.34492C27.5938 0.820187 27.2885 1.44184 26.7125 1.50401C26.6311 1.51404 26.5456 1.51003 26.4642 1.51003C20.4399 1.51003 14.4136 1.51003 8.38926 1.51003C7.97 1.51003 7.65657 1.30147 7.56702 0.966578C7.4734 0.619652 7.60569 0.256684 7.92522 0.104278C8.08193 0.0300802 8.27528 0.0040107 8.45235 0.0040107C11.4503 0 14.4502 0.00200535 17.4501 0.00200535Z" fill="#284A74"/>
<path d="M21.9277 18C19.2147 19.508 16.5526 20.99 13.8579 22.49C13.8579 19.4839 13.8579 16.52 13.8579 13.51C16.5445 15.004 19.2127 16.49 21.9277 18Z" fill="#284A74"/>
</g>
<defs>
<clipPath id="clip0_2878_6257">
<rect width="35" height="30" fill="white"/>
</clipPath>
</defs>
</svg>
