<svg width="15" height="15" viewBox="0 0 15 15" fill="none" xmlns="http://www.w3.org/2000/svg">
<g clip-path="url(#clip0_2878_5789)">
<path d="M0 7.79029C0 7.53614 0 7.28199 0 7.02266C0.00519031 6.99154 0.0103806 6.9656 0.0155709 6.93448C0.0415225 6.70108 0.0622837 6.46768 0.0986159 6.23428C0.228374 5.39921 0.508651 4.61083 0.918685 3.87432C1.51557 2.79029 2.33045 1.89818 3.36851 1.2239C4.42734 0.534068 5.58478 0.113943 6.85121 0.0205823C7.31315 -0.0157247 7.78547 -0.00535129 8.25259 0.025769C8.80796 0.0568894 9.35294 0.191744 9.87716 0.373279C10.9308 0.741537 11.891 1.27577 12.6903 2.06415C13.1211 2.49465 13.526 2.94589 13.8478 3.46457C14.2163 4.06623 14.5121 4.69901 14.7145 5.37847C14.8391 5.80378 14.9377 6.23427 14.974 6.67515C14.9844 6.81519 14.9948 6.95004 15.0052 7.09008C15.0052 7.35461 15.0052 7.62432 15.0052 7.88884C15 7.93552 14.9948 7.9822 14.9896 8.02369C14.9689 8.26228 14.9585 8.50087 14.917 8.73427C14.7509 9.72494 14.3979 10.6482 13.8581 11.504C13.5208 12.0434 13.1055 12.5206 12.6488 12.9615C11.9221 13.6617 11.0761 14.1803 10.1367 14.5382C9.46713 14.7924 8.77163 14.9376 8.05536 14.9843C7.49481 15.0206 6.93945 15.0102 6.38408 14.9324C5.41869 14.7976 4.52076 14.4604 3.67993 13.9729C2.79239 13.4542 2.04498 12.7747 1.43772 11.9449C1.05882 11.421 0.752595 10.8608 0.508651 10.2644C0.238754 9.60564 0.0778547 8.921 0.0311419 8.20523C0.0207612 8.06 0.0103806 7.92515 0 7.79029ZM7.47924 12.7488C10.4273 12.7644 12.7474 10.3473 12.7474 7.48427C12.7474 4.63158 10.3702 2.19382 7.38062 2.25087C4.76471 2.29755 2.24221 4.49672 2.24221 7.49984C2.24741 10.3837 4.58824 12.7384 7.47924 12.7488Z" fill="white"/>
<path d="M9.63322 4.87556C9.24913 4.6629 8.85986 4.6266 8.45502 4.80813C8.20069 4.92224 8.00865 5.10377 7.87889 5.35274C7.59342 5.89216 7.73356 6.499 8.20069 6.90875C8.57439 7.23552 9.35813 7.19921 9.72145 6.91913C10.1678 6.57162 10.3962 5.73655 9.93425 5.15045C10.9048 6.08925 11.3824 8.00834 10.1782 9.57473C9 11.1048 6.77854 11.3538 5.27854 10.0623C3.73702 8.73448 3.7474 6.43158 5.11245 5.0934C6.56574 3.67224 8.58996 3.9627 9.63322 4.87556Z" fill="white"/>
</g>
<defs>
<clipPath id="clip0_2878_5789">
<rect width="15" height="15" fill="white"/>
</clipPath>
</defs>
</svg>
