<svg width="21" height="21" viewBox="0 0 21 21" fill="none" xmlns="http://www.w3.org/2000/svg">
<path d="M10.6921 0.502883C12.4182 0.502883 14.1399 0.494053 15.866 0.507298C16.8864 0.516128 17.8663 0.688313 18.7249 1.27551C19.8397 2.0393 20.4331 3.10332 20.5634 4.42341C20.5994 4.77661 20.6128 5.13422 20.6128 5.49184C20.6173 8.76336 20.6173 12.0349 20.6128 15.3108C20.6128 16.3218 20.4375 17.2931 19.8352 18.1452C19.0351 19.2843 17.9023 19.8538 16.5178 19.9686C16.1492 19.9995 15.7761 20.0084 15.4075 20.0084C12.1216 20.0128 8.83562 20.0128 5.54968 20.0084C4.65515 20.0084 3.7741 19.8848 2.97846 19.4388C1.65689 18.7015 0.955652 17.5625 0.802818 16.0923C0.766857 15.7302 0.753371 15.3682 0.753371 15.0018C0.748876 11.7347 0.748876 8.47197 0.753371 5.20486C0.753371 4.19383 0.928679 3.22253 1.53103 2.37043C2.31318 1.25785 3.41899 0.675069 4.77652 0.555864C5.15411 0.520544 5.53169 0.507298 5.90929 0.507298C7.50506 0.498468 9.10083 0.502883 10.6921 0.502883ZM11.6001 11.3417C12.3598 11.4433 13.0206 11.6949 13.596 12.1453C14.2253 12.6353 14.6343 13.2799 14.94 13.9951C15.0119 14.1629 15.1018 14.2247 15.2861 14.2203C15.8525 14.2115 16.4144 14.2203 16.9808 14.2159C17.228 14.2159 17.2955 14.1364 17.21 13.9068C16.6257 12.2777 15.6637 10.962 14.014 10.2203C13.987 10.2071 13.9601 10.185 13.9196 10.1585C13.9825 10.1232 14.023 10.1011 14.059 10.079C15.4614 9.22693 16.3829 8.01281 16.8369 6.45872C16.9179 6.17616 16.8639 6.11877 16.5717 6.11436C16.0863 6.11436 15.5963 6.11436 15.1108 6.11436C14.6253 6.11436 14.7197 6.11877 14.5849 6.48963C14.1399 7.70376 13.3847 8.6574 12.1485 9.17395C11.9822 9.24459 11.8024 9.27991 11.6001 9.33731C11.6001 9.21369 11.6001 9.1298 11.6001 9.05033C11.6001 8.16733 11.5956 7.28875 11.6046 6.40575C11.6046 6.19382 11.5282 6.10552 11.3079 6.10994C10.791 6.11877 10.274 6.11436 9.75261 6.11436C9.41548 6.11436 9.39751 6.13201 9.39751 6.45872C9.39751 8.10552 9.39751 9.75232 9.39751 11.4035C9.39751 11.4918 9.39751 11.5757 9.39751 11.6684C9.02441 11.611 8.68278 11.4433 8.34115 11.1607C7.82421 10.7325 7.45561 10.1894 7.16343 9.59779C6.66447 8.59559 6.41724 7.52716 6.33183 6.42341C6.31385 6.20707 6.25092 6.10994 6.01268 6.11436C5.46427 6.1276 4.91586 6.12318 4.36746 6.11877C4.16518 6.11877 4.08427 6.19383 4.11573 6.3925C4.19215 6.87815 4.2371 7.37263 4.33599 7.85387C4.63716 9.31523 5.16759 10.6795 6.12056 11.8583C7.45561 13.5051 9.20421 14.2777 11.3394 14.2335C11.5282 14.2291 11.6091 14.1541 11.6001 13.9731C11.5956 13.8892 11.6001 13.8053 11.6001 13.7214C11.6001 12.94 11.6001 12.1585 11.6001 11.3417Z" fill="#0068F8"/>
</svg>
