<svg width="24" height="16" viewBox="0 0 24 16" fill="none" xmlns="http://www.w3.org/2000/svg">
<path d="M22.9086 2.46689C22.6474 1.504 21.8852 0.741347 20.9132 0.481449C19.1448 4.65195e-07 12.0626 0 12.0626 0C12.0626 0 4.98047 3.32282e-08 3.21206 0.464407C2.26149 0.724304 1.47791 1.504 1.21672 2.46689C0.75 4.22653 0.75 7.88213 0.75 7.88213C0.75 7.88213 0.75 11.5548 1.21672 13.2974C1.47791 14.2603 2.24008 15.0229 3.21206 15.2828C5.00187 15.7643 12.0626 15.7643 12.0626 15.7643C12.0626 15.7643 19.1448 15.7643 20.9132 15.2999C21.8809 15.04 22.6474 14.2816 22.9086 13.3144C23.3753 11.5548 23.3753 7.89917 23.3753 7.89917C23.3753 7.89917 23.3967 4.22653 22.9086 2.46689ZM9.81039 11.2565V4.50773L15.6979 7.88213L9.81039 11.2565Z" fill="#0068F8"/>
</svg>
